<?xml version="1.0" standalone="no"?>
<!DOCTYPE svg PUBLIC "-//W3C//DTD SVG 20010904//EN"
 "http://www.w3.org/TR/2001/REC-SVG-20010904/DTD/svg10.dtd">
<svg version="1.0" xmlns="http://www.w3.org/2000/svg"
 width="400.000000pt" height="400.000000pt" viewBox="0 0 400.000000 400.000000"
 preserveAspectRatio="xMidYMid meet">
<metadata>
Created by potrace 1.14, written by Peter Selinger 2001-2017
</metadata>
<g transform="translate(0.000000,400.000000) scale(0.100000,-0.100000)"
fill="#000000" stroke="none">
<path d="M1894 3511 c6 -8 -2 -11 -28 -8 -19 2 -38 2 -41 -2 -3 -3 -16 -6 -28
-7 -32 -2 -75 -12 -86 -18 -5 -4 -12 0 -14 6 -4 10 -6 10 -6 0 -1 -7 -5 -10
-11 -7 -5 3 -10 1 -10 -5 0 -7 -6 -10 -14 -7 -7 3 -19 0 -26 -6 -10 -9 -11 -9
-5 3 7 12 6 13 -7 3 -8 -7 -18 -10 -21 -6 -4 3 -7 1 -7 -4 0 -6 -11 -10 -25
-8 -14 1 -25 -1 -25 -5 0 -8 -49 -25 -62 -22 -5 1 -8 -2 -8 -8 0 -6 -3 -9 -7
-8 -5 1 -18 -3 -30 -10 -17 -9 -22 -9 -26 1 -3 7 -6 4 -6 -6 -1 -10 -5 -15
-11 -12 -5 3 -10 1 -10 -5 0 -6 -4 -8 -10 -5 -5 3 -10 1 -10 -5 0 -6 -4 -8
-10 -5 -5 3 -10 1 -10 -6 0 -7 -3 -9 -6 -6 -4 4 -19 -2 -34 -13 -15 -11 -30
-17 -34 -13 -3 3 -6 1 -6 -5 0 -6 -7 -9 -17 -5 -10 4 -14 2 -9 -5 3 -6 -3 -13
-14 -17 -11 -3 -20 -11 -20 -16 0 -6 -4 -8 -9 -4 -6 3 -13 0 -18 -8 -4 -7 -32
-28 -60 -46 -29 -18 -53 -37 -53 -42 0 -5 -7 -9 -16 -9 -8 0 -12 -4 -9 -10 6
-9 -8 -14 -27 -11 -5 0 -7 -2 -6 -7 2 -4 -27 -38 -64 -77 -90 -95 -108 -115
-108 -122 0 -3 -10 -14 -22 -24 -11 -11 -17 -19 -12 -19 5 0 0 -7 -10 -15 -11
-8 -17 -15 -13 -15 8 0 -2 -14 -35 -51 -10 -10 -19 -22 -19 -26 -4 -20 -14
-39 -28 -51 -13 -11 -13 -12 -1 -6 12 6 11 3 -2 -12 -16 -19 -18 -23 -18 -45
0 -5 -5 -7 -12 -3 -7 5 -9 2 -6 -7 3 -8 -5 -33 -18 -55 -13 -21 -24 -45 -24
-53 0 -8 -8 -20 -17 -28 -10 -8 -12 -12 -6 -8 7 3 13 1 13 -4 0 -6 -4 -11 -8
-11 -4 0 -8 -8 -9 -17 -2 -24 -13 -74 -20 -93 -3 -8 -8 -24 -10 -35 -2 -11 -6
-27 -10 -35 -3 -8 -5 -23 -4 -34 2 -10 -1 -16 -6 -13 -4 3 -8 -17 -7 -44 0
-27 -2 -49 -6 -49 -3 0 -5 -69 -5 -152 1 -89 -3 -158 -8 -166 -8 -10 -6 -12 4
-10 10 2 14 -8 13 -39 0 -23 3 -40 6 -38 4 3 8 -8 8 -23 0 -15 3 -38 6 -52 4
-14 8 -29 9 -35 2 -5 7 -16 11 -24 6 -9 5 -12 -2 -7 -6 3 -4 -7 4 -24 9 -16
13 -34 9 -40 -3 -5 -2 -10 4 -10 6 0 8 -7 5 -15 -4 -8 -1 -15 7 -15 7 0 9 -3
6 -7 -4 -3 -1 -13 6 -21 10 -13 9 -14 -3 -7 -11 6 -10 3 3 -12 9 -11 14 -23
10 -26 -3 -4 -1 -7 6 -7 7 0 9 -5 6 -10 -3 -6 -1 -10 5 -10 6 0 8 -4 5 -10 -3
-5 -1 -10 5 -10 6 0 8 -4 5 -10 -3 -5 -1 -10 5 -10 7 0 9 -7 6 -16 -4 -10 -2
-13 6 -8 7 5 9 0 6 -14 -4 -13 -2 -20 6 -19 6 1 11 -8 10 -20 0 -12 2 -21 5
-20 3 1 7 -1 8 -6 2 -4 12 -17 23 -29 11 -12 20 -28 20 -35 0 -7 3 -13 8 -13
10 0 48 -71 44 -83 -1 -5 1 -6 5 -4 5 3 14 -1 21 -9 7 -8 10 -14 8 -14 -3 0 9
-16 27 -35 50 -54 56 -62 50 -69 -4 -3 -1 -6 5 -6 19 0 52 -33 45 -44 -3 -6
-3 -8 2 -4 4 4 19 -4 34 -17 77 -72 105 -95 113 -95 5 0 6 -5 2 -12 -4 -6 -3
-8 4 -4 6 3 17 -1 25 -9 9 -8 18 -15 22 -15 13 0 34 -28 27 -35 -4 -5 -1 -5 6
-1 8 5 19 1 28 -10 9 -11 13 -13 9 -7 -7 14 95 -45 107 -62 4 -5 8 -7 8 -3 0
9 73 -21 81 -34 3 -5 16 -10 27 -11 12 -1 22 -4 22 -7 0 -3 9 -6 20 -7 11 -1
47 -11 80 -23 33 -12 69 -22 80 -23 11 -1 20 -4 20 -7 0 -4 6 -7 13 -7 11 -1
81 -11 117 -16 9 -2 22 -7 29 -12 11 -6 12 -4 5 6 -6 10 -1 9 18 -3 14 -9 29
-14 33 -10 11 12 69 11 84 -1 10 -8 13 -8 8 -1 -4 8 11 11 48 11 30 -1 52 -4
50 -7 -2 -4 2 -7 10 -7 8 0 12 4 10 8 -3 4 10 6 27 5 18 -1 44 2 57 6 15 6 29
4 39 -4 10 -8 13 -8 9 -2 -10 16 18 25 33 11 9 -8 11 -9 7 -1 -9 16 39 24 54
10 9 -8 10 -8 5 2 -4 6 -4 12 1 13 8 1 28 4 53 10 8 2 14 -2 12 -9 -1 -8 2
-11 8 -7 6 3 8 11 5 16 -4 5 -3 9 2 10 30 2 59 11 67 19 14 14 28 12 21 -2 -4
-7 -1 -6 7 3 19 22 44 29 58 16 7 -7 10 -7 7 -2 -3 6 17 24 45 39 28 16 47 23
42 15 -4 -7 5 -4 20 9 16 12 35 22 42 22 8 0 14 5 14 11 0 5 5 7 10 4 6 -3 10
-2 10 2 0 5 9 14 21 21 17 11 20 11 14 0 -4 -7 2 -4 12 7 10 12 30 27 46 35
15 7 27 17 27 22 0 4 7 8 15 8 9 0 18 7 21 15 4 8 10 13 14 10 5 -3 18 9 30
26 13 17 28 28 36 25 8 -3 13 -2 12 2 -4 11 87 102 102 102 7 0 11 3 7 6 -3 4
-1 12 6 19 7 7 18 22 26 33 8 12 19 18 24 15 6 -3 7 -1 3 5 -3 6 2 15 11 21
10 6 14 11 9 11 -5 0 1 8 12 19 12 10 19 21 15 25 -3 3 -2 6 4 6 6 0 13 9 16
21 3 12 10 18 17 14 6 -3 10 -3 9 2 -4 21 2 34 13 27 6 -4 8 -3 4 4 -3 6 5 27
19 48 14 20 25 41 25 47 0 5 8 16 18 24 9 8 11 11 4 8 -11 -6 -11 -3 0 16 7
13 16 26 19 29 8 8 34 74 31 83 -1 4 3 7 9 7 5 0 8 4 4 9 -3 6 3 14 12 20 11
6 13 11 5 11 -10 0 -10 5 -2 21 11 19 14 31 26 89 3 13 11 28 17 32 9 6 9 8
-1 8 -8 0 -10 5 -5 13 10 16 14 36 14 70 0 15 4 27 9 27 4 0 7 8 5 18 -1 9 3
23 9 31 8 11 8 13 -1 7 -7 -4 -13 -3 -13 3 0 5 8 15 18 20 9 6 12 11 7 11 -15
0 -17 50 -2 50 7 0 8 3 2 8 -15 10 -16 142 -2 142 7 0 6 4 -3 10 -13 9 -13 11
0 20 8 5 10 10 5 10 -15 0 -17 50 -2 50 8 0 7 4 -3 10 -8 5 -15 22 -16 38 -1
16 -4 34 -8 41 -4 6 -1 11 6 11 9 0 9 3 -2 10 -8 5 -12 10 -8 10 4 0 2 15 -3
33 -17 56 -21 71 -22 95 -1 12 -4 22 -7 22 -5 0 -10 22 -13 63 -1 9 -5 17 -10
17 -4 0 -5 5 -2 10 3 6 1 10 -5 10 -6 0 -8 5 -5 10 3 6 2 10 -3 10 -8 0 -20
39 -22 65 0 3 -9 14 -20 25 -12 12 -18 25 -15 30 4 6 1 10 -4 10 -6 0 -10 3
-9 8 3 11 -45 102 -54 102 -4 0 -8 9 -8 21 0 13 -4 18 -12 13 -8 -5 -9 -2 -5
9 3 9 3 16 -1 14 -4 -1 -8 2 -9 7 -1 5 -7 12 -15 17 -7 5 -13 12 -13 16 0 9
-14 27 -57 72 -15 16 -25 31 -22 34 3 3 -4 10 -15 17 -12 6 -19 15 -16 21 4 5
1 8 -7 7 -7 -2 -12 4 -10 12 2 8 1 12 -3 8 -10 -10 -45 24 -38 36 3 6 3 8 -2
4 -9 -8 -35 15 -35 31 0 6 -3 10 -7 10 -21 -3 -33 2 -33 16 0 8 -7 15 -15 15
-7 0 -19 8 -24 18 -6 9 -11 13 -11 9 0 -4 -6 -3 -12 3 -7 6 -31 24 -53 40 -22
16 -45 34 -51 39 -7 6 -14 7 -18 4 -3 -3 -8 2 -12 11 -3 9 -10 13 -15 10 -5
-3 -9 0 -9 6 0 6 -4 8 -10 5 -5 -3 -10 -1 -10 5 0 6 -4 8 -10 5 -5 -3 -10 -1
-10 5 0 6 -4 8 -10 5 -5 -3 -10 -1 -10 4 0 6 -9 11 -19 11 -10 0 -21 7 -25 15
-3 8 -12 12 -21 9 -8 -3 -15 -1 -15 6 0 6 -4 9 -9 6 -5 -3 -11 1 -15 9 -3 8
-12 12 -21 9 -8 -3 -15 -1 -15 5 0 6 -6 8 -14 5 -8 -3 -17 -1 -21 5 -3 6 -15
11 -26 11 -10 0 -19 3 -19 8 0 4 -17 8 -37 9 -20 1 -39 5 -42 10 -3 4 -15 8
-26 7 -11 0 -26 4 -32 9 -7 5 -13 6 -13 2 0 -4 -8 -1 -17 6 -15 12 -16 12 -8
-1 8 -13 6 -13 -15 0 -14 8 -44 15 -67 14 -24 0 -43 3 -43 7 0 5 -7 6 -16 2
-9 -3 -20 0 -25 8 -5 8 -9 9 -9 3 0 -13 -197 -13 -219 0 -10 6 -12 5 -7 -3z
m197 -191 c5 -8 9 -10 9 -4 0 7 17 12 40 12 29 1 38 -3 34 -11 -4 -7 -4 -9 1
-5 4 4 15 2 23 -5 13 -10 14 -9 8 1 -6 10 0 11 26 6 18 -3 39 -7 46 -7 6 0 12
-3 12 -7 0 -3 8 -6 18 -7 45 -2 72 -8 72 -15 0 -4 3 -7 8 -7 22 4 42 -2 37
-11 -3 -6 1 -7 10 -4 8 4 21 1 29 -5 7 -6 16 -8 19 -4 4 3 7 1 7 -5 0 -7 3
-11 8 -10 15 3 62 -15 62 -24 0 -5 5 -6 10 -3 6 3 10 1 10 -4 0 -6 6 -11 14
-11 22 0 66 -26 58 -35 -4 -5 1 -5 10 -2 18 6 43 -15 31 -27 -4 -4 -1 -4 8 -1
8 3 24 -2 34 -12 11 -10 33 -25 49 -33 39 -20 106 -82 106 -98 0 -7 5 -10 10
-7 6 4 24 -9 40 -27 17 -18 44 -47 60 -64 17 -17 30 -35 30 -40 0 -5 9 -15 21
-22 12 -7 18 -16 15 -19 -3 -3 2 -12 12 -20 11 -10 12 -12 2 -8 -8 4 -4 -3 9
-14 13 -12 20 -21 16 -21 -3 0 0 -7 7 -15 34 -38 39 -47 34 -61 -3 -8 -2 -12
4 -9 11 7 42 -49 33 -59 -4 -3 0 -6 7 -6 7 0 11 -3 7 -6 -3 -4 0 -13 8 -21 18
-17 36 -82 28 -96 -3 -6 -1 -7 4 -4 6 4 13 0 17 -8 3 -8 0 -15 -6 -15 -7 0 -5
-5 4 -12 19 -16 33 -52 15 -42 -9 6 -9 5 0 -8 7 -8 10 -18 6 -21 -3 -4 -2 -7
3 -7 9 0 15 -26 18 -77 0 -13 4 -23 7 -23 4 0 5 -10 5 -22 -1 -13 3 -29 8 -37
9 -12 8 -13 -4 -6 -12 7 -13 6 -4 -6 6 -8 10 -30 9 -49 -1 -19 3 -38 9 -42 8
-6 6 -11 -4 -18 -9 -6 -10 -10 -3 -10 8 0 11 -19 11 -55 -1 -30 -4 -55 -8 -55
-3 0 -5 -17 -4 -37 0 -21 -4 -44 -10 -52 -9 -12 -8 -13 3 -7 10 7 12 3 6 -15
-4 -13 -13 -27 -19 -31 -8 -5 -8 -8 0 -8 6 0 11 -7 11 -15 0 -8 -5 -15 -10
-15 -6 0 -7 -3 -4 -7 4 -3 1 -13 -6 -21 -9 -13 -9 -14 1 -8 17 10 15 -5 -5
-33 -12 -18 -13 -22 -2 -16 11 6 11 5 2 -5 -6 -7 -9 -19 -6 -28 5 -11 3 -13
-6 -7 -10 5 -11 2 -6 -14 3 -11 2 -21 -3 -21 -5 0 -9 -12 -9 -26 0 -15 -7 -30
-14 -35 -8 -5 -9 -9 -4 -9 6 0 1 -7 -9 -15 -11 -8 -15 -15 -8 -15 13 0 -14
-57 -38 -78 -8 -7 -10 -11 -4 -8 6 3 4 -9 -5 -28 -9 -19 -20 -31 -24 -29 -5 3
-7 -2 -5 -10 2 -9 -6 -23 -17 -32 -11 -9 -13 -14 -5 -10 8 4 6 -1 -4 -9 -11
-9 -16 -16 -10 -16 5 0 -2 -10 -16 -21 -14 -11 -18 -17 -10 -13 13 7 13 6 0
-12 -8 -10 -25 -29 -39 -42 -13 -12 -21 -22 -17 -22 4 0 -5 -13 -21 -29 -15
-16 -31 -27 -35 -24 -5 2 -8 -1 -8 -8 0 -17 -118 -129 -136 -129 -8 0 -12 -4
-9 -10 3 -5 2 -10 -4 -10 -6 0 -19 -9 -30 -21 -11 -12 -24 -18 -30 -14 -7 3
-10 1 -9 -6 2 -7 -3 -13 -10 -14 -7 0 -17 -7 -22 -15 -5 -8 -10 -10 -10 -5 0
6 -5 2 -11 -9 -9 -15 -13 -16 -20 -5 -7 11 -9 10 -9 -4 0 -10 -4 -15 -10 -12
-5 3 -10 2 -10 -4 0 -6 -7 -7 -17 -4 -11 4 -14 3 -9 -5 7 -11 3 -13 -32 -16
-7 -1 -17 -7 -21 -15 -5 -8 -16 -11 -25 -8 -9 4 -15 3 -13 -1 1 -4 -2 -8 -8
-10 -5 -2 -21 -10 -34 -19 -17 -11 -21 -11 -16 -2 5 9 1 8 -11 -2 -10 -9 -27
-15 -37 -14 -9 2 -15 -1 -11 -6 3 -5 -1 -9 -10 -9 -8 0 -17 6 -19 13 -3 7 -6
5 -6 -5 -1 -10 -6 -18 -12 -18 -5 0 -7 6 -3 13 4 6 -2 4 -13 -6 -11 -10 -27
-15 -37 -11 -9 3 -16 2 -16 -4 0 -6 -11 -9 -25 -7 -14 1 -28 -1 -30 -6 -3 -4
-13 -8 -23 -8 -102 -4 -129 -7 -125 -14 2 -4 -9 -6 -26 -5 -17 1 -31 7 -31 13
0 5 -5 3 -10 -5 -9 -13 -11 -13 -20 0 -6 9 -10 10 -10 3 0 -8 -12 -10 -37 -7
-21 3 -57 6 -81 7 -25 2 -47 9 -52 17 -6 9 -10 10 -10 3 0 -6 -9 -11 -20 -10
-11 1 -20 5 -20 9 0 5 -12 5 -26 2 -19 -5 -25 -3 -20 4 4 7 -3 10 -24 7 -16
-2 -30 1 -30 6 0 6 -4 7 -10 4 -5 -3 -10 -2 -10 3 0 6 -10 8 -22 4 -13 -3 -19
-1 -15 5 4 6 -4 9 -18 7 -14 -1 -25 1 -25 5 0 4 -10 8 -22 8 -13 1 -24 7 -26
12 -2 5 -9 8 -16 5 -8 -3 -16 2 -19 10 -4 9 -13 13 -22 10 -8 -3 -15 -1 -15 6
0 6 -5 8 -10 5 -6 -3 -10 -1 -10 4 0 6 -6 10 -12 9 -7 -2 -12 2 -11 9 2 7 -4
10 -12 7 -8 -4 -15 -1 -15 5 0 6 -7 8 -17 4 -12 -5 -14 -3 -8 7 5 9 4 11 -4 6
-7 -5 -19 0 -29 11 -9 10 -23 19 -31 21 -19 4 -81 52 -81 63 0 5 -3 8 -7 8
-24 -4 -35 3 -29 17 3 8 2 12 -4 9 -5 -3 -25 9 -43 27 -19 18 -42 38 -52 43
-10 6 -16 14 -14 17 2 4 -5 13 -15 21 -10 8 -16 19 -12 25 4 8 2 10 -7 6 -16
-6 -77 65 -77 90 0 9 -6 15 -12 14 -7 -2 -12 3 -10 10 1 6 -2 12 -7 12 -5 0
-16 12 -26 26 -11 18 -13 24 -4 19 8 -4 4 2 -9 14 -12 12 -20 26 -17 31 3 4
-2 11 -11 14 -8 3 -12 10 -9 16 3 5 2 10 -3 10 -9 0 -26 48 -22 59 1 2 -5 8
-14 13 -9 5 -16 20 -16 33 0 14 -5 25 -11 25 -5 0 -7 5 -4 10 3 6 1 10 -5 10
-6 0 -9 4 -5 9 3 5 1 12 -5 16 -15 9 -12 27 3 20 6 -4 4 0 -6 8 -10 9 -18 17
-17 19 1 1 -1 15 -5 29 -3 14 -7 32 -8 40 -2 8 -6 20 -10 27 -5 7 -3 12 5 12
10 0 10 2 1 8 -7 4 -14 24 -16 43 -2 20 -7 41 -11 47 -4 7 -1 12 6 12 8 0 9 3
3 8 -12 9 -17 60 -17 167 0 80 6 147 25 280 2 11 9 19 17 17 10 -2 11 0 2 11
-7 8 -9 16 -7 19 6 6 16 44 17 66 1 6 5 12 9 12 5 0 6 7 3 15 -4 8 -1 15 6 15
7 0 10 7 6 15 -3 8 -1 15 5 15 6 0 7 5 4 10 -3 6 -2 10 2 10 5 0 10 10 10 22
1 13 7 24 13 26 5 2 10 12 10 23 0 10 4 19 10 19 5 0 9 6 7 13 -1 6 4 11 11 9
8 -1 11 2 8 7 -7 11 14 74 22 66 3 -3 12 9 19 26 7 17 17 28 23 24 6 -3 7 0 4
9 -3 9 -1 16 6 16 6 0 8 5 5 10 -3 6 -1 10 4 10 6 0 11 7 11 16 0 8 4 12 10 9
5 -3 10 1 10 9 0 9 5 16 11 16 5 0 7 5 4 10 -6 9 8 14 28 11 5 -1 6 3 2 9 -3
5 5 21 19 34 14 13 26 28 26 33 0 5 20 25 45 43 25 19 52 44 61 57 8 13 19 21
23 18 5 -3 12 2 15 11 4 9 9 14 13 11 3 -4 14 3 24 15 11 11 19 17 19 12 0 -5
7 0 15 10 8 11 15 16 15 10 0 -5 3 -5 8 1 13 18 56 50 47 36 -4 -7 6 -4 23 9
18 13 35 19 43 15 7 -5 10 -4 6 2 -7 10 20 28 36 25 4 -1 7 3 7 9 0 5 5 7 10
4 6 -3 10 -1 10 6 0 6 8 9 20 6 11 -3 18 -1 15 4 -3 4 7 11 22 15 15 4 34 12
42 18 12 9 13 8 6 -4 -7 -12 -5 -12 11 1 10 9 25 14 32 12 6 -3 12 1 12 8 0 7
3 10 6 7 3 -4 20 -2 37 4 18 5 41 11 52 14 11 2 29 5 40 7 11 3 26 -1 34 -7
11 -8 13 -8 8 1 -5 7 -1 12 10 13 59 2 114 8 118 12 2 2 36 4 75 3 51 -1 74
-5 81 -15z"/>
<path d="M2473 2564 c4 -7 -17 -11 -61 -12 -60 -1 -129 -7 -142 -12 -3 -1 -8
-2 -12 -1 -5 0 -8 -4 -8 -10 0 -6 -7 -9 -15 -5 -8 3 -15 1 -15 -5 0 -6 -4 -8
-9 -5 -5 3 -14 0 -20 -8 -7 -8 -23 -17 -36 -20 -14 -4 -25 -11 -25 -17 0 -6
-4 -7 -10 -4 -5 3 -10 1 -10 -6 0 -6 -11 -22 -26 -35 -14 -13 -22 -24 -18 -24
3 0 0 -8 -7 -17 -8 -9 -9 -14 -3 -10 6 3 20 -11 33 -33 12 -22 19 -40 15 -40
-3 0 1 -11 10 -25 9 -14 14 -25 10 -25 -4 0 -1 -7 6 -15 6 -8 9 -19 5 -25 -3
-5 -2 -10 3 -10 9 0 11 -8 14 -55 1 -14 7 -25 13 -25 5 0 3 -5 -5 -10 -9 -6
-10 -10 -3 -10 6 0 12 -8 12 -17 2 -54 6 -73 14 -73 4 0 5 -5 1 -12 -4 -7 -3
-8 4 -4 6 4 22 1 34 -5 23 -13 49 -19 81 -20 9 0 15 -4 13 -8 -3 -4 10 -7 27
-7 21 1 31 -3 29 -12 -2 -9 2 -11 10 -5 15 9 58 12 58 3 0 -3 12 -6 28 -7 47
-4 66 -8 88 -20 12 -7 24 -9 28 -6 3 3 6 1 6 -5 0 -6 9 -14 20 -17 11 -4 18
-10 15 -15 -3 -4 2 -10 10 -14 8 -3 15 -10 15 -16 0 -6 -6 -8 -12 -4 -10 6
-10 5 -1 -7 11 -13 11 -41 2 -78 -5 -21 -42 -59 -51 -54 -5 2 -8 0 -8 -6 0 -5
-11 -8 -25 -7 -13 2 -22 -1 -19 -5 5 -9 -1 -11 -48 -12 -16 -1 -28 -4 -28 -7
0 -4 -19 -5 -42 -3 -24 2 -53 4 -65 4 -14 1 -23 7 -23 18 0 14 -2 14 -10 1 -8
-12 -12 -13 -19 -2 -4 8 -11 13 -15 13 -23 -3 -36 0 -31 9 3 6 -2 10 -12 10
-19 0 -53 32 -53 51 0 5 -4 7 -10 4 -9 -5 -14 6 -12 26 0 3 -10 5 -22 5 -14 0
-23 -6 -23 -15 0 -34 -3 -42 -14 -36 -6 4 -10 1 -8 -6 3 -28 -1 -40 -13 -33
-6 4 -8 3 -4 -4 3 -6 2 -13 -4 -17 -6 -4 -8 -11 -5 -16 4 -5 3 -9 -2 -9 -4 0
-13 -11 -19 -24 -9 -19 -8 -26 7 -37 10 -7 16 -16 13 -21 -3 -4 2 -8 10 -8 9
0 16 -4 16 -10 0 -5 6 -10 14 -10 8 0 16 -7 20 -15 3 -8 12 -12 20 -9 8 3 17
1 21 -5 3 -6 15 -11 26 -11 11 0 17 -5 14 -10 -4 -7 3 -8 21 -4 17 4 25 3 21
-3 -4 -7 5 -10 23 -8 17 1 30 0 30 -4 0 -10 202 -7 218 2 7 5 12 3 12 -5 0
-10 2 -10 9 1 5 7 14 10 20 7 6 -4 11 -2 11 5 0 7 3 9 7 6 3 -4 13 -1 21 6 13
10 14 9 7 -3 -8 -13 -6 -13 8 -2 9 8 22 10 28 6 7 -4 9 -3 6 3 -5 8 40 43 53
40 5 -1 32 20 75 59 13 12 21 25 18 28 -4 3 -1 6 6 6 7 0 9 5 6 10 -3 6 -1 10
6 10 7 0 9 3 6 7 -4 3 1 15 10 26 11 12 12 17 4 12 -11 -6 -12 -5 -5 6 10 16
11 20 13 55 1 17 5 23 14 18 7 -5 7 -1 -2 10 -13 15 -13 19 0 27 8 5 9 9 3 9
-11 0 -13 7 -16 54 -1 14 -5 23 -9 20 -4 -2 -10 8 -14 24 -4 15 -5 27 -4 27 2
0 -13 17 -34 37 -20 21 -37 42 -37 47 0 6 -7 8 -15 5 -8 -4 -17 1 -21 10 -3 9
-10 14 -14 11 -5 -3 -11 -1 -15 5 -4 6 -11 8 -16 5 -5 -4 -9 -1 -9 4 0 6 -9
11 -20 11 -11 0 -20 3 -20 8 0 6 -27 10 -83 13 -9 0 -15 4 -12 8 2 5 -10 9
-28 9 -74 3 -113 7 -124 15 -7 5 -18 5 -24 2 -5 -4 -20 1 -31 12 -12 10 -18
12 -14 5 7 -11 4 -11 -12 -1 -12 7 -18 17 -15 23 3 5 1 6 -6 2 -27 -17 -60 55
-37 83 8 11 8 13 -1 7 -9 -5 -11 -2 -7 8 3 9 10 16 16 16 5 0 7 4 4 9 -6 10
41 44 61 44 7 0 13 3 13 7 0 4 6 7 13 7 6 0 21 4 31 9 15 6 17 4 11 -7 -7 -11
-6 -12 6 -3 20 16 115 9 146 -11 14 -9 23 -13 20 -7 -4 5 9 2 28 -7 19 -9 37
-24 41 -34 3 -10 8 -16 11 -13 9 9 34 -15 27 -25 -8 -13 28 1 50 20 16 13 18
13 12 1 -4 -8 -1 -7 8 4 8 10 20 15 27 10 7 -4 10 -3 6 3 -4 6 0 14 9 17 10 4
13 2 8 -6 -4 -6 4 -3 18 7 25 19 33 45 15 45 -6 0 -8 3 -4 6 3 4 -1 13 -9 21
-8 8 -11 20 -7 26 3 7 3 9 -2 5 -4 -4 -18 3 -30 17 -13 13 -26 21 -29 18 -3
-3 -8 2 -12 11 -3 9 -10 13 -15 10 -5 -3 -9 -1 -9 5 0 10 -38 27 -52 23 -5 -1
-8 3 -8 9 0 5 -4 7 -10 4 -5 -3 -10 -2 -10 4 0 5 -9 8 -20 6 -11 -2 -20 0 -20
4 0 8 -16 11 -55 12 -10 0 -26 5 -34 12 -8 7 -12 7 -8 1z"/>
<path d="M1200 2543 c0 -6 -10 -13 -22 -15 l-23 -3 0 -359 c0 -269 3 -362 12
-371 7 -7 9 -16 5 -20 -4 -5 0 -4 8 1 22 13 110 13 110 0 0 -6 5 -4 10 4 9 13
11 13 20 0 5 -8 10 -10 10 -4 0 7 8 14 18 16 16 5 17 24 17 256 0 170 3 249
10 244 5 -3 5 1 -2 9 -23 28 1 35 122 33 66 -1 125 -2 130 -4 6 -1 14 -2 19
-1 5 1 18 -6 29 -16 11 -10 17 -12 13 -5 -10 17 0 15 32 -5 36 -23 85 -63 77
-63 -4 0 3 -9 16 -21 13 -11 17 -17 9 -13 -8 4 -5 -3 8 -16 13 -12 21 -29 18
-36 -3 -8 1 -17 9 -20 8 -3 15 -16 15 -27 -1 -12 1 -41 3 -64 2 -27 0 -43 -7
-43 -7 0 -6 -3 1 -8 8 -5 10 -21 6 -45 -3 -20 -9 -34 -14 -32 -4 3 -6 -3 -4
-14 2 -11 -3 -25 -11 -31 -7 -7 -11 -16 -8 -21 3 -5 0 -9 -6 -9 -6 0 -9 -4 -6
-9 3 -4 -4 -17 -17 -27 -21 -19 -21 -19 -7 1 14 18 14 19 -2 6 -10 -7 -16 -17
-13 -21 8 -12 -33 -43 -46 -34 -8 4 -10 3 -5 -4 4 -7 -8 -18 -31 -28 -31 -14
-79 -17 -268 -19 -278 -3 -257 -2 -281 -21 -10 -8 -14 -13 -8 -10 9 4 11 -12
10 -57 -2 -34 1 -76 5 -92 l8 -30 225 0 c123 0 222 3 220 6 -2 4 13 7 34 8 60
1 72 4 72 14 0 6 3 8 6 5 3 -4 25 3 50 13 24 11 49 17 54 14 6 -4 9 -1 8 7 -2
7 3 12 10 11 6 -2 12 2 12 7 0 5 4 9 8 7 5 -1 28 18 52 43 24 25 48 44 53 42
4 -1 6 2 2 8 -3 5 -1 10 5 10 6 0 9 4 6 9 -3 5 1 12 10 15 8 3 13 10 9 15 -3
6 3 14 12 20 10 5 15 12 11 16 -10 11 13 66 25 58 5 -3 7 -1 3 5 -3 6 -3 13 2
16 5 3 7 19 4 37 -3 21 -1 30 6 25 7 -4 9 3 6 20 -3 14 1 33 8 42 9 10 9 13 1
9 -15 -10 -15 52 1 72 9 12 8 13 -3 6 -11 -6 -13 -3 -9 13 4 12 3 22 -1 22 -5
0 -7 12 -6 28 1 15 -4 38 -10 52 -7 14 -11 33 -10 43 2 10 -1 14 -7 10 -7 -4
-9 2 -5 16 3 14 0 24 -9 28 -8 3 -11 9 -8 14 3 5 0 9 -6 9 -6 0 -9 4 -6 9 3 5
-1 12 -10 15 -9 4 -14 9 -12 12 3 3 -18 28 -47 57 -69 68 -92 87 -99 80 -3 -4
-6 -1 -6 6 0 7 -4 10 -9 7 -5 -3 -11 0 -14 8 -3 9 -15 12 -31 9 -16 -3 -26 -1
-26 6 0 7 -4 9 -10 6 -5 -3 -10 -2 -10 3 0 6 -10 8 -22 4 -12 -3 -19 -1 -15 4
3 6 -13 9 -39 9 -31 -1 -48 3 -54 14 -5 9 -10 11 -10 5 0 -15 -372 -14 -382 1
-5 6 -8 6 -8 -2z"/>
</g>
</svg>
